<svg xmlns="http://www.w3.org/2000/svg" width="504" height="505" viewBox="0 0 504 505" fill="none">
  <path fill-rule="evenodd" clip-rule="evenodd" d="M159.034 42.3302C124.275 57.126 95.9447 80.8473 67.9399 113.479C14.4727 175.78 1.88003 290.659 75.1622 395.279C103.656 435.959 143.178 458.349 181.5 469.777C219.802 481.199 256.289 481.465 277.777 478.337C375.776 458.58 428.263 409.409 454.895 356.933C477.013 313.353 481.684 266.693 478.608 231.153C472.939 235.138 467.226 238.096 461.487 240.085C449.596 244.206 438.28 243.922 428.187 240.859C411.857 235.904 399.383 223.953 391.572 213.041C348.836 214.564 321.318 198.477 305.333 175.505C290.798 154.616 286.819 129.502 287.482 110.742C264.909 89.7559 257.624 67.9017 260.208 47.9709C261.369 39.0171 264.46 30.9743 268.456 24.0664C223.768 23.266 188.69 29.706 159.034 42.3302ZM149.634 20.2476C188.852 3.55322 235.115 -2.89733 294.163 1.19258C299.105 1.53493 303.329 4.87964 304.796 9.61211C306.262 14.3446 304.669 19.4917 300.786 22.5689C293.638 28.2336 285.613 38.6809 284.009 51.0569C282.527 62.4836 286.172 78.3294 307.599 96.5149C310.595 99.0578 312.156 102.906 311.778 106.818C310.293 122.185 313.015 144.526 325.034 161.797C336.402 178.136 357.364 191.812 396.892 188.701C401.49 188.339 405.889 190.645 408.208 194.632C413.61 203.925 423.52 214.363 435.156 217.893C440.675 219.568 446.79 219.778 453.627 217.408C460.602 214.991 468.985 209.653 478.399 199.153C481.431 195.771 486.113 194.391 490.494 195.588C494.876 196.784 498.207 200.352 499.1 204.806C507.273 245.585 506.153 308.967 476.297 367.795C446.132 427.231 387.2 480.846 282.196 501.929C281.995 501.969 281.793 502.005 281.591 502.035C256.871 505.693 216.67 505.309 174.642 492.776C132.456 480.196 87.8107 455.169 55.5049 409.048C-23.2129 296.668 -11.8056 169.548 49.7273 97.8488C79.2225 63.4805 110.392 36.9518 149.634 20.2476Z" fill="white"/>
  <path d="M218.833 121.164C218.833 138.837 204.506 153.164 186.833 153.164C169.16 153.164 154.833 138.837 154.833 121.164C154.833 103.491 169.16 89.1639 186.833 89.1639C204.506 89.1639 218.833 103.491 218.833 121.164Z" fill="currentColor"/>
  <path
    d="M154.833 249.164C154.833 266.837 140.506 281.164 122.833 281.164C105.16 281.164 90.8334 266.837 90.8334 249.164C90.8334 231.491 105.16 217.164 122.833 217.164C140.506 217.164 154.833 231.491 154.833 249.164Z"
    fill="currentColor" />
  <path
    d="M315.833 375.164C315.833 392.837 301.506 407.164 283.833 407.164C266.16 407.164 251.833 392.837 251.833 375.164C251.833 357.491 266.16 343.164 283.833 343.164C301.506 343.164 315.833 357.491 315.833 375.164Z"
    fill="currentColor" />
  <path
    d="M285.833 264.164C285.833 273.553 278.222 281.164 268.833 281.164C259.445 281.164 251.833 273.553 251.833 264.164C251.833 254.775 259.445 247.164 268.833 247.164C278.222 247.164 285.833 254.775 285.833 264.164Z"
    fill="currentColor" />
  <path
    d="M188.833 360.164C188.833 369.553 181.222 377.164 171.833 377.164C162.445 377.164 154.833 369.553 154.833 360.164C154.833 350.775 162.445 343.164 171.833 343.164C181.222 343.164 188.833 350.775 188.833 360.164Z"
    fill="currentColor" />
  <path
    d="M412.833 330.164C412.833 339.553 405.222 347.164 395.833 347.164C386.445 347.164 378.833 339.553 378.833 330.164C378.833 320.775 386.445 313.164 395.833 313.164C405.222 313.164 412.833 320.775 412.833 330.164Z"
    fill="currentColor" />
</svg>