<svg width="132" height="24" viewBox="0 0 132 24" fill="none" xmlns="http://www.w3.org/2000/svg">
<path d="M16.4569 21.6266H13.4954L4.58501 8.14406V21.6266H1.62354V3.54598H4.58501L13.4954 17.0025V3.54598H16.4569V21.6266Z" fill="white"/>
<path d="M28.6328 12.6123L34.244 21.6266H30.9188L26.8403 15.0801L23.0216 21.6266H19.7224L25.3336 12.6123L19.6964 3.57195H23.0216L27.1261 10.1703L30.9708 3.57195H34.27L28.6328 12.6123Z" fill="white"/>
<path d="M50.1924 21.8084C48.9801 21.8084 47.889 21.6006 46.9192 21.1849C45.9493 20.752 45.1873 20.1458 44.6331 19.3665C44.0789 18.5872 43.8018 17.6779 43.8018 16.6388H46.9711C47.0404 17.4182 47.3435 18.0589 47.8804 18.5612C48.4346 19.0634 49.2052 19.3145 50.1924 19.3145C51.2142 19.3145 52.0108 19.0721 52.5823 18.5872C53.1539 18.0849 53.4396 17.4441 53.4396 16.6648C53.4396 16.0586 53.2578 15.5651 52.8941 15.1841C52.5477 14.803 52.1061 14.5086 51.5692 14.3008C51.0497 14.093 50.3223 13.8678 49.3871 13.6254C48.2094 13.3137 47.2482 13.0019 46.5035 12.6902C45.7762 12.3611 45.1527 11.8589 44.6331 11.1835C44.1136 10.508 43.8538 9.60748 43.8538 8.48177C43.8538 7.44266 44.1136 6.53343 44.6331 5.7541C45.1527 4.97476 45.8801 4.37727 46.8153 3.96162C47.7505 3.54598 48.8329 3.33815 50.0625 3.33815C51.8117 3.33815 53.2405 3.77978 54.3488 4.66302C55.4746 5.52895 56.098 6.72393 56.2192 8.24797H52.946C52.8941 7.58986 52.5824 7.02701 52.0108 6.55941C51.4393 6.09181 50.686 5.85801 49.7508 5.85801C48.9022 5.85801 48.2094 6.07449 47.6725 6.50745C47.1357 6.94042 46.8672 7.56389 46.8672 8.37786C46.8672 8.93205 47.0317 9.391 47.3608 9.75469C47.7072 10.1011 48.1401 10.3782 48.6597 10.586C49.1792 10.7938 49.8893 11.0189 50.7899 11.2614C51.9849 11.5905 52.9547 11.9195 53.6994 12.2486C54.4614 12.5776 55.1022 13.0885 55.6218 13.7813C56.1586 14.4567 56.4271 15.3659 56.4271 16.5089C56.4271 17.4268 56.176 18.2927 55.6737 19.1067C55.1888 19.9207 54.4701 20.5788 53.5176 21.081C52.5824 21.566 51.474 21.8084 50.1924 21.8084Z" fill="white"/>
<path d="M63.3766 9.72871V17.652C63.3766 18.1888 63.4978 18.5785 63.7402 18.821C64 19.0461 64.433 19.1587 65.0391 19.1587H66.8576V21.6266H64.5196C63.1861 21.6266 62.1643 21.3148 61.4542 20.6914C60.7441 20.0679 60.3891 19.0548 60.3891 17.652V9.72871H58.7005V7.31277H60.3891V3.7538H63.3766V7.31277H66.8576V9.72871H63.3766Z" fill="white"/>
<path d="M82.55 7.31277V21.6266H79.5886V19.938C79.121 20.5268 78.5062 20.9944 77.7441 21.3408C76.9994 21.6699 76.2028 21.8344 75.3542 21.8344C74.2285 21.8344 73.2153 21.6006 72.3148 21.133C71.4315 20.6654 70.7301 19.9726 70.2106 19.0548C69.7083 18.1369 69.4572 17.0285 69.4572 15.7296V7.31277H72.3927V15.288C72.3927 16.5695 72.7131 17.5567 73.3539 18.2494C73.9947 18.9249 74.8693 19.2626 75.9776 19.2626C77.086 19.2626 77.9606 18.9249 78.6014 18.2494C79.2595 17.5567 79.5886 16.5695 79.5886 15.288V7.31277H82.55Z" fill="white"/>
<path d="M85.4703 14.4047C85.4703 12.9673 85.7647 11.6944 86.3536 10.586C86.9597 9.47759 87.7737 8.62032 88.7955 8.01417C89.8346 7.3907 90.9863 7.07897 92.2505 7.07897C93.1857 7.07897 94.1036 7.28679 95.0042 7.70243C95.9221 8.10076 96.6495 8.63764 97.1863 9.31306V2.40295H100.174V21.6266H97.1863V19.4704C96.7014 20.1631 96.026 20.7347 95.1601 21.1849C94.3114 21.6352 93.333 21.8604 92.2246 21.8604C90.9776 21.8604 89.8346 21.5486 88.7955 20.9252C87.7737 20.2844 86.9597 19.4011 86.3536 18.2754C85.7647 17.1324 85.4703 15.8422 85.4703 14.4047ZM97.1863 14.4567C97.1863 13.4695 96.9785 12.6122 96.5629 11.8849C96.1645 11.1575 95.6363 10.6033 94.9782 10.2223C94.3201 9.84128 93.61 9.65077 92.848 9.65077C92.086 9.65077 91.376 9.84128 90.7178 10.2223C90.0597 10.586 89.5229 11.1315 89.1072 11.8589C88.7089 12.569 88.5097 13.4176 88.5097 14.4047C88.5097 15.3919 88.7089 16.2578 89.1072 17.0025C89.5229 17.7472 90.0597 18.3187 90.7178 18.717C91.3933 19.0981 92.1033 19.2886 92.848 19.2886C93.61 19.2886 94.3201 19.0981 94.9782 18.717C95.6363 18.336 96.1645 17.7818 96.5629 17.0545C96.9785 16.3098 97.1863 15.4438 97.1863 14.4567Z" fill="white"/>
<path d="M105.57 5.41638C105.033 5.41638 104.583 5.23454 104.219 4.87085C103.856 4.50716 103.674 4.05688 103.674 3.52C103.674 2.98312 103.856 2.53284 104.219 2.16915C104.583 1.80546 105.033 1.62362 105.57 1.62362C106.09 1.62362 106.531 1.80546 106.895 2.16915C107.259 2.53284 107.441 2.98312 107.441 3.52C107.441 4.05688 107.259 4.50716 106.895 4.87085C106.531 5.23454 106.09 5.41638 105.57 5.41638ZM107.025 7.31277V21.6266H104.064V7.31277H107.025Z" fill="white"/>
<path d="M117.122 21.8604C115.771 21.8604 114.55 21.5573 113.459 20.9511C112.368 20.3277 111.511 19.4617 110.887 18.3534C110.264 17.2276 109.952 15.9288 109.952 14.4567C109.952 13.0019 110.272 11.7117 110.913 10.586C111.554 9.46027 112.429 8.59434 113.537 7.98819C114.645 7.38204 115.884 7.07897 117.252 7.07897C118.62 7.07897 119.858 7.38204 120.967 7.98819C122.075 8.59434 122.95 9.46027 123.59 10.586C124.231 11.7117 124.552 13.0019 124.552 14.4567C124.552 15.9114 124.223 17.2017 123.564 18.3274C122.906 19.4531 122.006 20.3277 120.863 20.9511C119.737 21.5573 118.49 21.8604 117.122 21.8604ZM117.122 19.2886C117.884 19.2886 118.594 19.1067 119.252 18.743C119.928 18.3793 120.473 17.8338 120.889 17.1064C121.304 16.379 121.512 15.4958 121.512 14.4567C121.512 13.4176 121.313 12.543 120.915 11.8329C120.516 11.1055 119.988 10.56 119.33 10.1963C118.672 9.83262 117.962 9.65077 117.2 9.65077C116.438 9.65077 115.728 9.83262 115.07 10.1963C114.429 10.56 113.918 11.1055 113.537 11.8329C113.156 12.543 112.965 13.4176 112.965 14.4567C112.965 15.998 113.355 17.193 114.134 18.0416C114.931 18.8729 115.927 19.2886 117.122 19.2886Z" fill="white"/>
<path d="M130.376 19.3941C130.376 20.6271 129.377 21.6266 128.144 21.6266C126.911 21.6266 125.911 20.6271 125.911 19.3941C125.911 18.1611 126.911 17.1616 128.144 17.1616C129.377 17.1616 130.376 18.1611 130.376 19.3941Z" fill="#C20E55"/>
</svg>
